<?xml version="1.0" standalone="no"?>
<!DOCTYPE svg PUBLIC "-//W3C//DTD SVG 20010904//EN"
 "http://www.w3.org/TR/2001/REC-SVG-20010904/DTD/svg10.dtd">
<svg version="1.0" xmlns="http://www.w3.org/2000/svg"
 width="70.000000pt" height="70.000000pt" viewBox="0 0 70.000000 70.000000"
 preserveAspectRatio="xMidYMid meet">

<g transform="translate(0.000000,70.000000) scale(0.100000,-0.100000)"
fill="#000000" stroke="none">
<path d="M253 686 c-103 -34 -176 -98 -222 -196 -22 -46 -26 -69 -26 -140 0
-76 4 -93 33 -152 38 -77 92 -130 171 -167 47 -22 70 -26 141 -26 72 0 93 4
140 27 72 35 136 99 169 168 22 47 26 68 26 150 0 82 -4 103 -26 150 -32 68
-97 133 -167 167 -65 32 -174 40 -239 19z m189 -80 c60 -21 115 -72 145 -134
71 -145 2 -325 -145 -378 -96 -34 -220 -5 -289 67 -101 107 -97 286 8 386 71
67 189 92 281 59z"/>
<path d="M162 444 c-26 -18 -52 -65 -52 -94 0 -54 57 -110 112 -110 29 0 88
36 88 53 0 21 -34 47 -60 47 -22 0 -22 -1 -6 -19 15 -17 15 -19 1 -25 -28 -10
-44 -7 -65 14 -25 25 -26 62 -2 83 35 32 63 21 137 -54 102 -103 139 -118 201
-80 93 57 48 201 -63 201 -20 0 -43 -10 -63 -27 l-33 -27 27 -23 c28 -24 56
-30 56 -14 0 6 -5 13 -10 16 -16 10 -1 25 24 25 36 0 59 -24 59 -60 0 -35 -23
-60 -56 -60 -10 0 -58 38 -107 85 -80 77 -92 85 -127 85 -21 0 -49 -7 -61 -16z"/>
</g>
</svg>
